<svg version="1.1" xmlns="http://www.w3.org/2000/svg" xmlns:xlink="http://www.w3.org/1999/xlink" x="0px" y="0px" viewBox="0 0 95 24">
<g transform="translate(0, -1)" fill="#e95164">
  <path d="M0,1.2v19c0,0,0,0.1,0.1,0.2c0.1,0.1,0.2,0.1,0.2,0.1h2.9c0,0,0.1,0,0.2-0.1
    c0.1-0.1,0.1-0.2,0.1-0.2V6.9l10.2,13.5c0,0,0,0,0.1,0.1c0.1,0,0.1,0,0.1,0h2.5c0,0,0.1,0,0.2-0.1c0.1-0.1,0.1-0.2,0.1-0.2v-19
    c0,0,0-0.1-0.1-0.2C16.3,1,16.2,1,16.2,1h-2.9c0,0-0.1,0-0.2,0.1c-0.1,0.1-0.1,0.2-0.1,0.2v13L3.2,1.1c0,0,0,0-0.1-0.1
    C3.1,1,3,1,3,1H0.2c0,0-0.1,0-0.2,0.1C0,1.1,0,1.2,0,1.2z M91.4,5.8c0.1,0,0.1,0,0.1,0h3c0,0,0.1,0,0.2,0.1c0.1,0.1,0,0.2,0,0.2
    L89,20.9c-1.2,3-2.5,4.1-4.8,4.1c-1.3,0-2.3-0.3-3.3-0.8c0,0-0.1,0-0.1-0.1c0-0.1,0-0.2,0-0.2l0.9-2c0,0,0-0.1,0.1-0.1
    c0.1,0,0.2,0,0.2,0c0.6,0.3,1.1,0.4,1.8,0.4c0.9,0,1.5-0.4,2.1-1.7l-6-14.4c0,0-0.1-0.1,0-0.2c0.1-0.1,0.2-0.1,0.2-0.1h3.1
    c0,0,0.1,0,0.1,0c0.1,0,0.1,0.1,0.1,0.1l4,10.7l3.8-10.7C91.3,5.9,91.3,5.9,91.4,5.8z M71.3,5.9c0.1-0.1,0.2-0.1,0.2-0.1h2.9
    c0,0,0.1,0,0.2,0.1C74.6,5.9,74.6,6,74.6,6v3.1c0.7-1.7,1.8-2.9,3.5-3.3c0,0,0.1,0,0.2,0c0.1,0,0.1,0.1,0.1,0.1
    c0.2,0.6,1,2.3,1.3,3c0,0,0,0.1,0,0.2c-0.1,0.1-0.2,0.1-0.2,0.1c-2.9,0.1-4.8,1.7-4.8,5.5v5.4c0,0,0,0.1-0.1,0.2
    c-0.1,0.1-0.2,0.1-0.2,0.1h-2.9c0,0-0.1,0-0.2-0.1c-0.1-0.1-0.1-0.2-0.1-0.2V6C71.2,6,71.2,5.9,71.3,5.9z M66.3,13.2L66.3,13.2
    c0-2.6-1.9-4.8-4.5-4.8c-2.7,0-4.4,2.1-4.4,4.7v0.1c0,2.6,1.9,4.7,4.5,4.7C64.6,17.9,66.3,15.7,66.3,13.2z M54,13.2L54,13.2
    c0-4.3,3.3-7.7,7.8-7.7c4.5,0,7.8,3.4,7.8,7.6v0.1c0,4.2-3.3,7.6-7.9,7.6C57.3,20.8,54,17.4,54,13.2z M47,16.4V1.2
    c0,0,0-0.1,0.1-0.2C47.1,1,47.2,1,47.2,1h2.9c0,0,0.1,0,0.2,0.1c0.1,0.1,0.1,0.2,0.1,0.2v4.5h2.9c0,0,0.1,0,0.2,0.1
    C53.5,5.9,53.5,6,53.5,6v2.4c0,0,0,0.1-0.1,0.2c-0.1,0.1-0.2,0.1-0.2,0.1h-2.9v7.2c0,1.1,0.4,1.9,1.4,1.9c0.6,0,0.8-0.1,1.4-0.3
    c0,0,0.1-0.1,0.2,0c0.1,0.1,0.1,0.2,0.1,0.2v2.2c0,0,0,0.1,0,0.1c0,0.1-0.1,0.1-0.1,0.1c-0.8,0.4-1.5,0.6-2.5,0.6
    C48.3,20.7,47,19.6,47,16.4z M39.1,10.7l3.3-4.8c0,0,0-0.1,0.1-0.1c0.1,0,0.1,0,0.1,0h3c0,0,0.1,0,0.2,0.1c0.1,0.1,0,0.3,0,0.3
    L41,13l5.1,7.1c0,0,0.1,0.1,0,0.3c-0.1,0.1-0.2,0.1-0.2,0.1h-3.1c0,0-0.1,0-0.1,0c-0.1,0-0.1-0.1-0.1-0.1l-3.5-5.1l-3.5,5.1
    c0,0,0,0-0.1,0.1c-0.1,0-0.1,0-0.1,0h-3c0,0-0.1,0-0.2-0.1c-0.1-0.1,0-0.3,0-0.3l5.1-7.1l-4.9-6.8c0,0-0.1-0.1,0-0.3
    c0.1-0.1,0.2-0.1,0.2-0.1h3.1c0,0,0.1,0,0.1,0c0.1,0,0.1,0.1,0.1,0.1L39.1,10.7z M29,12.1c-0.2-2.2-1.5-3.9-3.7-3.9
    c-2.1,0-3.5,1.6-3.8,3.9H29z M18.2,13.2L18.2,13.2c0-4.3,3-7.7,7.2-7.7c4.7,0,7,3.7,7,7.9c0,0.2,0,0.5,0,0.7c0,0,0,0.1-0.1,0.2
    c-0.1,0.1-0.2,0.1-0.2,0.1H21.5c0.4,2.4,2.1,3.7,4.2,3.7c1.6,0,2.7-0.6,3.8-1.6c0.1,0,0.1-0.1,0.2-0.1c0.1,0,0.1,0.1,0.1,0.1
    l1.6,1.4c0,0,0.1,0,0.1,0.1c0,0.1-0.1,0.2-0.1,0.2c-1.4,1.6-3.2,2.6-5.8,2.6C21.4,20.8,18.2,17.7,18.2,13.2z"/>
</g>
</svg>
